<?xml version="1.0" encoding="utf-8"?>
<!-- Generator: Adobe Illustrator 26.3.1, SVG Export Plug-In . SVG Version: 6.00 Build 0)  -->
<svg version="1.1" id="Layer_1" xmlns="http://www.w3.org/2000/svg" xmlns:xlink="http://www.w3.org/1999/xlink" x="0px" y="0px"
	 viewBox="0 0 820 624" style="enable-background:new 0 0 820 624;" xml:space="preserve">
<style type="text/css">
	.st0{fill:#444444;}
	.st1{fill:#467AFF;}
</style>
<g>
</g>
<g>
	<path class="st0" d="M207,467c-1.66,0-3-1.34-3-3c0-41.1-14.87-80.78-41.86-111.72c-1.09-1.25-0.96-3.14,0.29-4.23
		s3.14-0.96,4.23,0.29C194.61,380.37,210,421.45,210,464C210,465.66,208.66,467,207,467z"/>
</g>
<g>
	<path class="st1" d="M447.41,128.97C447.4,128.97,447.4,128.97,447.41,128.97c-1.66,0-3-1.35-3-3l0.02-19.62l-19.63-0.02
		c-1.66,0-3-1.35-3-3c0-1.66,1.34-3,3-3c0,0,0,0,0,0l25.63,0.02l-0.02,25.62C450.4,127.63,449.06,128.97,447.41,128.97z"/>
</g>
<g>
	<path d="M250.05,389.63h-2.52c0,14.37-3.66,21.56-10.99,21.56c-7.61,0-11.41-7.19-11.41-21.56c-1.4,0-2.12,0.02-2.17,0.07v-6.02
		h2.24c0.37-5.88,1.77-10.24,4.2-13.09c2.05-2.33,4.43-3.5,7.14-3.5c3.17,0,5.65,1.12,7.42,3.36c2.01,2.71,3.17,7.14,3.5,13.3h2.59
		V389.63z M241.65,389.63c-0.47-0.05-1.13-0.07-1.99-0.07c-0.86,0-1.93-0.02-3.19-0.07c-0.51,0-1.24,0-2.17,0
		c-0.93,0-2.08,0.02-3.43,0.07c-0.09,4.39,0.35,7.96,1.33,10.71c1.03,2.94,2.45,4.41,4.27,4.41
		C239.92,404.68,241.65,399.67,241.65,389.63z M241.65,383.82c-0.42-7.19-2.15-10.78-5.18-10.78c-1.35,0-2.54,0.91-3.57,2.73
		c-1.17,2.01-1.82,4.67-1.96,7.98c0.51,0,1.06,0,1.65,0c0.58,0,1.2,0.02,1.85,0.07c0.65,0.05,1.16,0.07,1.5,0.07
		c0.35,0,0.5,0,0.46,0h0.49c0.14,0,0.33,0,0.56,0c0.23,0,0.51-0.02,0.84-0.07H241.65z"/>
</g>
<g>
	<path d="M205,284.12l4.9-27.7h7.05l-0.85,4.9c2.3-3.2,5.55-5.3,9.4-5.3l-1.3,7.35h-1.85c-3.9,0-6.55,1.4-7.7,5.95l-2.6,14.8H205z"
		/>
</g>
<g>
	<path d="M489.54,71.95l-15.05,16.3h12.3L485.74,94h-20.25l1-5.65l14.95-16.3h-12.05l1-5.75h20.1L489.54,71.95z"/>
	<path d="M508.49,67.15h27.25v6.1h-27.25V67.15z M508.49,79.15h27.25v6.1h-27.25V79.15z"/>
	<path d="M569.19,65.85c4.45,0,7.15,2.1,8.35,4.4l0.7-3.95h7.05l-4.9,27.7h-7.05l0.75-4.05c-2.05,2.4-5.6,4.5-10,4.5
		c-7,0-11.6-5.75-10.05-14.4C555.54,71.4,562.14,65.85,569.19,65.85z M569.94,72c-3.75,0-7.8,2.8-8.75,8.05
		c-0.9,5.25,2.1,8.25,5.85,8.25c3.8,0,7.85-2.9,8.75-8.15C576.74,74.9,573.74,72,569.94,72z"/>
	<path d="M606.54,63.45v9.7h9.45v6.1h-9.45v9.7h-6.6v-9.7h-9.45v-6.1h9.45v-9.7H606.54z"/>
	<path d="M642.09,65.85c7.1,0,11.65,5.55,10.15,14.2c-1.55,8.65-8.1,14.4-15.15,14.4c-4.35,0-7.15-2-8.4-4.4l-0.7,3.95h-7.05
		l6.55-37h7.05l-2.35,13.35C634.29,67.8,637.89,65.85,642.09,65.85z M639.19,72c-3.75,0-7.85,2.9-8.75,8.15
		c-0.95,5.25,2.05,8.15,5.85,8.15c3.8,0,7.85-3,8.8-8.25C645.99,74.8,642.99,72,639.19,72z"/>
	<path d="M659.74,66.3h7.05l-4.9,27.7h-7.05L659.74,66.3z M660.29,58.9c0.4-2.3,2.55-4.1,5.05-4.1c2.45,0,3.95,1.8,3.55,4.1
		c-0.4,2.3-2.55,4.1-5,4.1C661.39,63,659.89,61.2,660.29,58.9z"/>
</g>
<g>
	<path d="M523.99,271.85c7.1,0,11.65,5.55,10.15,14.2c-1.55,8.65-8.1,14.4-15.15,14.4c-4.35,0-7.15-2-8.4-4.4l-0.7,3.95h-7.05
		l6.55-37h7.05l-2.35,13.35C516.19,273.8,519.79,271.85,523.99,271.85z M521.09,278c-3.75,0-7.85,2.9-8.75,8.15
		c-0.95,5.25,2.05,8.15,5.85,8.15s7.85-3,8.8-8.25C527.89,280.8,524.89,278,521.09,278z"/>
	<path d="M554.09,273.15h27.25v6.1h-27.25V273.15z M554.09,285.15h27.25v6.1h-27.25V285.15z"/>
	<path d="M598.94,300l4.9-27.7h7.05l-0.85,4.9c2.3-3.2,5.55-5.3,9.4-5.3l-1.3,7.35h-1.85c-3.9,0-6.55,1.4-7.7,5.95l-2.6,14.8H598.94
		z"/>
	<path d="M644.24,300.45c-6.95,0-11.8-4.05-12.1-9.2h7.05c0.25,2.1,2.2,3.7,5,3.7c2.75,0,4.25-1.25,4.25-2.85
		c0-4.95-15.65-1.8-15.65-11.95c0-4.6,4.1-8.3,10.95-8.3c6.7,0,10.75,3.65,11.15,9.15h-6.7c-0.2-2.15-1.9-3.6-4.65-3.6
		c-2.6,0-3.95,1.05-3.95,2.65c0,5.05,15.35,1.9,15.55,12.05C655.14,296.85,650.99,300.45,644.24,300.45z"/>
	<path d="M660.14,264.9c0-2.3,1.8-4.1,4.3-4.1c2.45,0,4.3,1.8,4.3,4.1c0,2.3-1.85,4.1-4.3,4.1C661.94,269,660.14,267.2,660.14,264.9
		z M660.89,272.3h7V300h-7V272.3z"/>
	<path d="M694.19,284.7c0-4.45-2.45-6.85-6.15-6.85c-3.8,0-6.25,2.4-6.25,6.85V300h-7v-27.7h7v3.45c1.8-2.35,4.8-3.85,8.35-3.85
		c6.45,0,11.05,4.2,11.05,11.85V300h-7V284.7z"/>
	<path d="M719.94,309.85c-6.55-6.3-10.2-16.6-10.2-27.65c0-11.1,3.65-21.85,10.95-28.4h7.05v0.65c-7.6,7.2-11.25,17.75-11.25,27.75
		c0,10,3.65,19.9,10.5,26.95v0.7H719.94z"/>
	<path d="M758.25,279.63h-2.52c0,14.37-3.66,21.56-10.99,21.56c-7.61,0-11.41-7.19-11.41-21.56c-1.4,0-2.12,0.02-2.17,0.07v-6.02
		h2.24c0.37-5.88,1.77-10.24,4.2-13.09c2.05-2.33,4.43-3.5,7.14-3.5c3.17,0,5.65,1.12,7.42,3.36c2.01,2.71,3.17,7.14,3.5,13.3h2.59
		V279.63z M749.85,279.63c-0.47-0.05-1.13-0.07-2-0.07c-0.86,0-1.92-0.02-3.19-0.07c-0.51,0-1.24,0-2.17,0
		c-0.93,0-2.08,0.02-3.43,0.07c-0.09,4.39,0.35,7.96,1.33,10.71c1.03,2.94,2.45,4.41,4.27,4.41
		C748.12,294.68,749.85,289.67,749.85,279.63z M749.85,273.82c-0.42-7.19-2.15-10.78-5.18-10.78c-1.35,0-2.54,0.91-3.57,2.73
		c-1.17,2.01-1.82,4.67-1.96,7.98c0.51,0,1.06,0,1.64,0c0.58,0,1.2,0.02,1.86,0.07c0.65,0.05,1.15,0.07,1.5,0.07
		c0.35,0,0.5,0,0.46,0h0.49c0.14,0,0.33,0,0.56,0c0.23,0,0.51-0.02,0.84-0.07H749.85z"/>
	<path d="M761.44,309.85v-0.7c6.85-7.05,10.5-16.95,10.5-26.95c0-10-3.65-20.55-11.25-27.75v-0.65h7.05
		c7.3,6.55,10.95,17.3,10.95,28.4c0,11.05-3.65,21.35-10.2,27.65H761.44z"/>
</g>
<g>
	<path d="M109.42,561.85c4.45,0,7.15,2.1,8.35,4.4l0.7-3.95h7.05l-4.9,27.7h-7.05l0.75-4.05c-2.05,2.4-5.6,4.5-10,4.5
		c-7,0-11.6-5.75-10.05-14.4C95.77,567.4,102.37,561.85,109.42,561.85z M110.17,568c-3.75,0-7.8,2.8-8.75,8.05
		c-0.9,5.25,2.1,8.25,5.85,8.25c3.8,0,7.85-2.9,8.75-8.15C116.97,570.9,113.97,568,110.17,568z"/>
	<path d="M144.82,563.15h27.25v6.1h-27.25V563.15z M144.82,575.15h27.25v6.1h-27.25V575.15z"/>
	<path d="M189.67,590l4.9-27.7h7.05l-0.85,4.9c2.3-3.2,5.55-5.3,9.4-5.3l-1.3,7.35h-1.85c-3.9,0-6.55,1.4-7.7,5.95l-2.6,14.8H189.67
		z"/>
	<path d="M237.77,561.85c6.9,0,11.55,3.6,13.05,9.8h-7.55c-0.8-2.35-2.65-3.85-5.55-3.85c-3.9,0-6.5,2.95-6.5,8.35s2.6,8.3,6.5,8.3
		c2.9,0,4.7-1.3,5.55-3.8h7.55c-1.5,5.9-6.15,9.8-13.05,9.8c-8,0-13.7-5.6-13.7-14.3C224.07,567.45,229.77,561.85,237.77,561.85z"/>
	<path d="M268.27,590.45c-8,0-14.05-5.6-14.05-14.3c0-8.75,6.25-14.3,14.25-14.3c8,0,14.25,5.55,14.25,14.3
		C282.72,584.85,276.32,590.45,268.27,590.45z M268.27,584.35c3.7,0,7.25-2.7,7.25-8.2c0-5.55-3.45-8.2-7.15-8.2
		s-7.05,2.65-7.05,8.2C261.32,581.65,264.52,584.35,268.27,584.35z"/>
	<path d="M298.47,590.45c-6.95,0-11.8-4.05-12.1-9.2h7.05c0.25,2.1,2.2,3.7,5,3.7c2.75,0,4.25-1.25,4.25-2.85
		c0-4.95-15.65-1.8-15.65-11.95c0-4.6,4.1-8.3,10.95-8.3c6.7,0,10.75,3.65,11.15,9.15h-6.7c-0.2-2.15-1.9-3.6-4.65-3.6
		c-2.6,0-3.95,1.05-3.95,2.65c0,5.05,15.35,1.9,15.55,12.05C309.37,586.85,305.22,590.45,298.47,590.45z"/>
	<path d="M327.22,599.85c-6.55-6.3-10.2-16.6-10.2-27.65c0-11.1,3.65-21.85,10.95-28.4h7.05v0.65c-7.6,7.2-11.25,17.75-11.25,27.75
		s3.65,19.9,10.5,26.95v0.7H327.22z"/>
	<path d="M365.52,569.63H363c0,14.38-3.66,21.56-10.99,21.56c-7.61,0-11.41-7.19-11.41-21.56c-1.4,0-2.12,0.03-2.17,0.07v-6.02h2.24
		c0.37-5.88,1.77-10.24,4.2-13.09c2.05-2.33,4.43-3.5,7.14-3.5c3.17,0,5.65,1.12,7.42,3.36c2.01,2.71,3.17,7.14,3.5,13.3h2.59
		V569.63z M357.12,569.63c-0.47-0.04-1.13-0.07-1.99-0.07c-0.86,0-1.93-0.02-3.19-0.07c-0.51,0-1.24,0-2.17,0
		c-0.93,0-2.08,0.02-3.43,0.07c-0.09,4.39,0.35,7.96,1.33,10.71c1.03,2.94,2.45,4.41,4.27,4.41
		C355.4,584.68,357.12,579.67,357.12,569.63z M357.12,563.82c-0.42-7.19-2.15-10.78-5.18-10.78c-1.35,0-2.54,0.91-3.57,2.73
		c-1.17,2.01-1.82,4.67-1.96,7.98c0.51,0,1.06,0,1.65,0c0.58,0,1.2,0.02,1.85,0.07c0.65,0.05,1.15,0.07,1.5,0.07s0.5,0,0.46,0h0.49
		c0.14,0,0.33,0,0.56,0c0.23,0,0.51-0.02,0.84-0.07H357.12z"/>
	<path d="M368.71,599.85v-0.7c6.85-7.05,10.5-16.95,10.5-26.95s-3.65-20.55-11.25-27.75v-0.65h7.05c7.3,6.55,10.95,17.3,10.95,28.4
		c0,11.05-3.65,21.35-10.2,27.65H368.71z"/>
</g>
<g>
	<path d="M763.69,498.1c8.4,0,12.6,4.85,12.6,10.7c0,4.25-2.35,8.55-7.95,10.05l8.35,14.15h-8.1l-7.7-13.6h-3.3V533h-7v-34.9H763.69
		z M763.44,503.9h-5.85v10.25h5.85c3.9,0,5.65-2.05,5.65-5.2C769.09,505.85,767.34,503.9,763.44,503.9z"/>
	<path d="M794.74,533.45c-8.05,0-13.9-5.6-13.9-14.3c0-8.75,5.7-14.3,13.9-14.3c8,0,13.65,5.45,13.65,13.7c0,0.9-0.05,1.8-0.2,2.7
		h-20.25c0.35,4.1,3.15,6.4,6.65,6.4c3,0,4.65-1.5,5.55-3.35h7.55C806.19,529.4,801.59,533.45,794.74,533.45z M787.99,516.55h13.15
		c-0.1-3.65-3-5.95-6.6-5.95C791.19,510.6,788.54,512.75,787.99,516.55z"/>
</g>
<g>
	<path d="M68.32,16.1h7V51h-7V16.1z"/>
	<path d="M120.97,35.7c0-4.4-2.45-6.7-6.15-6.7c-3.75,0-6.2,2.3-6.2,6.7V51h-7V35.7c0-4.4-2.45-6.7-6.15-6.7
		c-3.8,0-6.25,2.3-6.25,6.7V51h-7V23.3h7v3.35c1.75-2.3,4.7-3.75,8.15-3.75c4.3,0,7.85,1.85,9.75,5.3c1.8-3.15,5.45-5.3,9.5-5.3
		c6.65,0,11.35,4.2,11.35,11.85V51h-7V35.7z"/>
</g>
<g>
	
		<rect x="-33.44" y="281.5" transform="matrix(0.7541 -0.6568 0.6568 0.7541 -127.8615 227.5045)" class="st1" width="546.64" height="6"/>
</g>
<g>
	<path class="st0" d="M238.88,553.49c-0.83,0-1.5-0.67-1.5-1.5c0-4.85,3.2-10.62,8.56-15.43c24.3-21.82,80.38-19.42,111.64-16.05
		c34.09,3.67,59.14-1.13,74.44-14.29c13.23-11.37,13.97-25.15,13.98-25.29c0.04-0.83,0.74-1.47,1.56-1.44
		c0.83,0.03,1.47,0.73,1.44,1.56c-0.02,0.61-0.76,15.13-14.95,27.38c-15.95,13.77-41.79,18.83-76.79,15.06
		c-71.68-7.72-99.26,6.27-109.32,15.3c-7.01,6.3-7.56,11.69-7.56,13.2C240.38,552.82,239.71,553.49,238.88,553.49z"/>
</g>
<g>
	<path class="st0" d="M239,553.49c-0.83,0-1.5-0.67-1.5-1.5c0-3.44-2.41-9.54-9.19-15.39c-24.99-21.57-78.16-17.48-107.63-13.12
		c-25.39,3.76-45.35,0.12-59.31-10.79C45,499.9,43.08,481.9,43.01,481.15c-0.08-0.82,0.52-1.56,1.35-1.64
		c0.82-0.08,1.56,0.52,1.64,1.35c0.02,0.17,1.91,17.53,17.26,29.51c13.29,10.37,32.47,13.78,56.98,10.16
		c29.98-4.43,84.13-8.54,110.03,13.81c7.54,6.51,10.23,13.39,10.23,17.66C240.5,552.82,239.83,553.49,239,553.49z"/>
</g>
<g>
	<path class="st0" d="M447.43,467c-1.66,0-3-1.34-3-3v-8c0-1.66,1.34-3,3-3s3,1.34,3,3v8C450.43,465.66,449.08,467,447.43,467z
		 M447.43,439c-1.66,0-3-1.34-3-3v-20c0-1.66,1.34-3,3-3s3,1.34,3,3v20C450.43,437.66,449.08,439,447.43,439z M447.43,399
		c-1.66,0-3-1.34-3-3v-20c0-1.66,1.34-3,3-3s3,1.34,3,3v20C450.43,397.66,449.08,399,447.43,399z M447.43,359c-1.66,0-3-1.34-3-3
		v-20c0-1.66,1.34-3,3-3s3,1.34,3,3v20C450.43,357.66,449.08,359,447.43,359z M447.43,319c-1.66,0-3-1.34-3-3v-20c0-1.66,1.34-3,3-3
		s3,1.34,3,3v20C450.43,317.66,449.08,319,447.43,319z M447.43,279c-1.66,0-3-1.34-3-3v-20c0-1.66,1.34-3,3-3s3,1.34,3,3v20
		C450.43,277.66,449.08,279,447.43,279z M447.43,239c-1.66,0-3-1.34-3-3v-20c0-1.66,1.34-3,3-3s3,1.34,3,3v20
		C450.43,237.66,449.08,239,447.43,239z M447.43,199c-1.66,0-3-1.34-3-3v-20c0-1.66,1.34-3,3-3s3,1.34,3,3v20
		C450.43,197.66,449.08,199,447.43,199z M447.43,159c-1.66,0-3-1.34-3-3v-20c0-1.66,1.34-3,3-3s3,1.34,3,3v20
		C450.43,157.66,449.08,159,447.43,159z"/>
</g>
<g>
	<path class="st0" d="M450.43,467h-64v-64h64V467z M392.43,461h52v-52h-52V461z"/>
</g>
<g>
	<g>
		<path class="st0" d="M33.76,623c-1.66,0-3-1.34-3-3V7.78c0-1.66,1.34-3,3-3s3,1.34,3,3V620C36.76,621.66,35.42,623,33.76,623z"/>
	</g>
	<g>
		<path class="st0" d="M17.76,24c-0.77,0-1.54-0.29-2.12-0.88c-1.17-1.17-1.17-3.07,0-4.24L33.76,0.76l18.12,18.12
			c1.17,1.17,1.17,3.07,0,4.24c-1.17,1.17-3.07,1.17-4.24,0L33.76,9.24L19.88,23.12C19.3,23.71,18.53,24,17.76,24z"/>
	</g>
</g>
<g>
	<g>
		<path class="st0" d="M810.98,467H4c-1.66,0-3-1.34-3-3s1.34-3,3-3h806.98c1.66,0,3,1.34,3,3S812.64,467,810.98,467z"/>
	</g>
	<g>
		<path class="st0" d="M797.77,483c-0.77,0-1.54-0.29-2.12-0.88c-1.17-1.17-1.17-3.07,0-4.24L809.52,464l-13.88-13.88
			c-1.17-1.17-1.17-3.07,0-4.24c1.17-1.17,3.07-1.17,4.24,0L818.01,464l-18.12,18.12C799.3,482.71,798.53,483,797.77,483z"/>
	</g>
</g>
<g>
	<path class="st0" d="M462.09,457.5c-0.21,0-0.42-0.04-0.62-0.13c-0.76-0.34-1.09-1.23-0.75-1.98c0.28-0.61,27.5-61.85,12.62-104.58
		c-9.1-26.11-9.44-47.96-0.93-59.92c3.79-5.33,9.17-8.26,15.16-8.26c0.83,0,1.5,0.67,1.5,1.5s-0.67,1.5-1.5,1.5
		c-5.07,0-9.46,2.42-12.72,7c-3.75,5.28-11.14,21.43,1.32,57.2c15.28,43.87-11.57,104.25-12.72,106.8
		C463.21,457.18,462.66,457.5,462.09,457.5z"/>
</g>
<g>
	<path class="st0" d="M487.57,285.5c-5.99,0-11.38-2.93-15.16-8.26c-8.5-11.97-8.16-33.81,0.93-59.92
		c14.88-42.73-12.34-103.97-12.62-104.58c-0.34-0.75,0-1.64,0.75-1.98c0.76-0.34,1.64,0,1.98,0.75c1.15,2.55,28,62.93,12.72,106.8
		c-12.46,35.77-5.07,51.92-1.32,57.2c3.25,4.58,7.65,7,12.72,7c0.83,0,1.5,0.67,1.5,1.5S488.4,285.5,487.57,285.5z"/>
</g>
</svg>
