<?xml version="1.0" encoding="UTF-8" standalone="no"?>
<!-- Created with Inkscape (http://www.inkscape.org/) -->

<svg
   xmlns:dc="http://purl.org/dc/elements/1.1/"
   xmlns:cc="http://creativecommons.org/ns#"
   xmlns:rdf="http://www.w3.org/1999/02/22-rdf-syntax-ns#"
   xmlns:svg="http://www.w3.org/2000/svg"
   xmlns="http://www.w3.org/2000/svg"
   xmlns:sodipodi="http://sodipodi.sourceforge.net/DTD/sodipodi-0.dtd"
   xmlns:inkscape="http://www.inkscape.org/namespaces/inkscape"
   version="1.0"
   width="300"
   height="240"
   id="svg2"
   inkscape:version="0.48.0 r9654"
   sodipodi:docname="Dot_Product.svg">
  <metadata
     id="metadata37">
    <rdf:RDF>
      <cc:Work
         rdf:about="">
        <dc:format>image/svg+xml</dc:format>
        <dc:type
           rdf:resource="http://purl.org/dc/dcmitype/StillImage" />
      </cc:Work>
    </rdf:RDF>
  </metadata>
  <sodipodi:namedview
     pagecolor="#ffffff"
     bordercolor="#666666"
     borderopacity="1"
     objecttolerance="10"
     gridtolerance="10"
     guidetolerance="10"
     inkscape:pageopacity="0"
     inkscape:pageshadow="2"
     inkscape:window-width="1280"
     inkscape:window-height="974"
     id="namedview35"
     showgrid="false"
     inkscape:zoom="2.15"
     inkscape:cx="173.62265"
     inkscape:cy="99.942509"
     inkscape:window-x="-4"
     inkscape:window-y="-4"
     inkscape:window-maximized="1"
     inkscape:current-layer="svg2" />
  <defs
     id="defs4">
    <marker
       refX="0"
       refY="0"
       orient="auto"
       id="StopM"
       style="overflow:visible">
      <path
         d="M 0,5.65 L 0,-5.65"
         transform="scale(0.4,0.4)"
         id="path2870"
         style="fill:none;fill-opacity:0.75;fill-rule:evenodd;stroke:#000000;stroke-width:1pt" />
    </marker>
    <marker
       refX="0"
       refY="0"
       orient="auto"
       id="DistanceOut"
       style="overflow:visible">
      <g
         id="g2816">
        <path
           d="M 0,0 L -2,0"
           id="path2316"
           style="fill:none;stroke:#ffffff;stroke-width:1.14999998;stroke-linecap:square" />
        <path
           d="M 0,0 L -13,4 L -9,0 L -13,-4 L 0,0 z"
           id="path2312"
           style="fill:#000000;fill-rule:evenodd;stroke:none" />
        <path
           d="M 0,-4 L 0,40"
           id="path2314"
           style="fill:none;stroke:#000000;stroke-width:1;stroke-linecap:square" />
      </g>
    </marker>
    <marker
       refX="0"
       refY="0"
       orient="auto"
       id="DistanceIn"
       style="overflow:visible">
      <g
         id="g2300">
        <path
           d="M 0,0 L 2,0"
           id="path2306"
           style="fill:none;stroke:#ffffff;stroke-width:1.14999998;stroke-linecap:square" />
        <path
           d="M 0,0 L 13,4 L 9,0 L 13,-4 L 0,0 z"
           id="path2302"
           style="fill:#000000;fill-rule:evenodd;stroke:none" />
        <path
           d="M 0,-4 L 0,40"
           id="path2304"
           style="fill:none;stroke:#000000;stroke-width:1;stroke-linecap:square" />
      </g>
    </marker>
    <marker
       refX="0"
       refY="0"
       orient="auto"
       id="Arrow1Mend"
       style="overflow:visible">
      <path
         d="M 0,0 L 5,-5 L -12.5,0 L 5,5 L 0,0 z"
         transform="matrix(-0.4,0,0,-0.4,-4,0)"
         id="path2769"
         style="fill-rule:evenodd;stroke:#000000;stroke-width:1pt;marker-start:none" />
    </marker>
    <marker
       refX="0"
       refY="0"
       orient="auto"
       id="Arrow1Mstart"
       style="overflow:visible">
      <path
         d="M 0,0 L 5,-5 L -12.5,0 L 5,5 L 0,0 z"
         transform="matrix(0.4,0,0,0.4,4,0)"
         id="path2766"
         style="fill-rule:evenodd;stroke:#000000;stroke-width:1pt;marker-start:none" />
    </marker>
    <marker
       refX="0"
       refY="0"
       orient="auto"
       id="Arrow1Sstart"
       style="overflow:visible">
      <path
         d="M 0,0 L 5,-5 L -12.5,0 L 5,5 L 0,0 z"
         transform="matrix(0.2,0,0,0.2,1.2,0)"
         id="path2772"
         style="fill-rule:evenodd;stroke:#000000;stroke-width:1pt;marker-start:none" />
    </marker>
  </defs>
  <g
     id="layer1">
    <path
       d="M 112.35684,20.470637 L 114.34836,29.522627 L 121.18064,6.6658599 L 103.30627,22.462468 L 112.35684,20.470637 z"
       id="path5344"
       style="fill-rule:evenodd;stroke:none;stroke-width:0.4pt;marker-start:none" />
    <path
       d="M 273.75302,125.74642 L 268.76485,133.5577 L 289.75081,122.21851 L 265.94297,120.75745 L 273.75302,125.74642 z"
       id="path5346"
       style="fill-rule:evenodd;stroke:none;stroke-width:0.4pt;marker-start:none" />
    <path
       d="M 114.82513,16.211978 L 7.1699599,184.6074 L 277.20998,125.06759"
       id="path5335"
       style="opacity:1;color:#000000;fill:none;fill-opacity:1;fill-rule:evenodd;stroke:#000000;stroke-width:3;stroke-linecap:round;stroke-linejoin:miter;marker:none;marker-start:none;marker-mid:none;marker-end:none;stroke-miterlimit:4;stroke-dasharray:none;stroke-dashoffset:0;stroke-opacity:1;visibility:visible;display:inline;overflow:visible;enable-background:accumulate" />
    <path
       d="M 40.271942,138.90458 C 49.258252,144.78506 54.832777,153.03409 56.937112,163.56526"
       transform="matrix(1.0921362,0,0,1.0923085,-11.948849,-4.1435116)"
       id="path6149"
       style="color:#000000;fill:none;fill-opacity:1;fill-rule:evenodd;stroke:#000000;stroke-width:2.74669337;stroke-linecap:round;stroke-linejoin:round;marker:none;marker-start:none;marker-mid:none;marker-end:none;stroke-miterlimit:4;stroke-dashoffset:0;stroke-opacity:1;visibility:visible;display:inline;overflow:visible;enable-background:accumulate" />
    <path
       d="M 74.751629,33.096218 L 84.203598,8.4841633 L 87.712411,8.4841633 L 97.785557,33.096218 L 94.075281,33.096218 L 91.204435,25.64209 L 80.913037,25.64209 L 78.210076,33.096218 L 74.751629,33.096218 z M 81.853197,22.989494 L 90.19712,22.989494 L 87.628468,16.173332 C 86.844989,14.10276 86.262985,12.401519 85.882456,11.069604 C 85.569058,12.647751 85.126959,14.214683 84.556158,15.770406 L 81.853197,22.989494 z"
       transform="scale(1.0044848,0.9955352)"
       id="text6151"
       style="font-size:34.38300705px;font-style:normal;font-variant:normal;font-weight:normal;font-stretch:normal;text-indent:0;text-align:start;text-decoration:none;line-height:125%;letter-spacing:normal;word-spacing:normal;text-transform:none;direction:ltr;block-progression:tb;writing-mode:lr-tb;text-anchor:start;color:#000000;fill-opacity:1;fill-rule:evenodd;stroke:none;stroke-width:3;stroke-linecap:round;stroke-linejoin:round;marker:none;marker-start:none;marker-mid:none;marker-end:none;stroke-miterlimit:4;stroke-dashoffset:0;stroke-opacity:1;visibility:visible;display:inline;overflow:visible;enable-background:accumulate;font-family:Arial" />
    <path
       d="M 271.81989,160.15189 L 271.81989,135.53983 L 281.05361,135.53983 C 282.93392,135.53986 284.44209,135.78889 285.57813,136.28692 C 286.71414,136.78501 287.60393,137.55168 288.24752,138.58696 C 288.89106,139.62227 289.21284,140.70514 289.21286,141.83555 C 289.21284,142.88765 288.92743,143.87817 288.35664,144.80713 C 287.78581,145.73611 286.924,146.486 285.7712,147.0568 C 287.25977,147.49331 288.40419,148.2376 289.20446,149.28968 C 290.0047,150.34177 290.40483,151.58412 290.40485,153.01674 C 290.40483,154.16956 290.16139,155.24123 289.67454,156.23175 C 289.18766,157.22228 288.58607,157.98616 287.86977,158.52339 C 287.15344,159.06063 286.25525,159.46635 285.17521,159.74057 C 284.09513,160.01478 282.77163,160.15189 281.20471,160.15189 L 271.81989,160.15189 z M 275.07688,145.88159 L 280.39886,145.88159 C 281.84266,145.88161 282.87795,145.78647 283.50474,145.59619 C 284.33296,145.34997 284.95694,144.94145 285.37667,144.37062 C 285.79637,143.79983 286.00622,143.08352 286.00624,142.22169 C 286.00622,141.40466 285.81036,140.68555 285.41864,140.06435 C 285.02689,139.4432 284.46727,139.01789 283.73978,138.78842 C 283.01226,138.559 281.76431,138.44428 279.99593,138.44426 L 275.07688,138.44426 L 275.07688,145.88159 z M 275.07688,157.24746 L 281.20471,157.24746 C 282.25678,157.24746 282.99547,157.20829 283.4208,157.12994 C 284.17067,156.99564 284.79745,156.77179 285.30112,156.4584 C 285.80476,156.14502 286.21888,155.68893 286.54347,155.09013 C 286.86804,154.49134 287.03033,153.80021 287.03034,153.01674 C 287.03033,152.09897 286.79529,151.30152 286.32522,150.62437 C 285.85513,149.94724 285.20317,149.47156 284.36935,149.19734 C 283.53551,148.92314 282.33512,148.78603 280.7682,148.78602 L 275.07688,148.78602 L 275.07688,157.24746 z"
       transform="scale(1.0044848,0.9955352)"
       id="text6155"
       style="font-size:34.38300705px;font-style:normal;font-variant:normal;font-weight:normal;font-stretch:normal;text-indent:0;text-align:start;text-decoration:none;line-height:125%;letter-spacing:normal;word-spacing:normal;text-transform:none;direction:ltr;block-progression:tb;writing-mode:lr-tb;text-anchor:start;color:#000000;fill-opacity:1;fill-rule:evenodd;stroke:none;stroke-width:3;stroke-linecap:round;stroke-linejoin:round;marker:none;marker-start:none;marker-mid:none;marker-end:none;stroke-miterlimit:4;stroke-dashoffset:0;stroke-opacity:1;visibility:visible;display:inline;overflow:visible;enable-background:accumulate;font-family:Arial" />
    <path
       d="M 121.85842,7.0868551 L 150.27962,151.58582"
       id="path6159"
       style="opacity:1;color:#000000;fill:none;fill-opacity:1;fill-rule:evenodd;stroke:#000000;stroke-width:2;stroke-linecap:round;stroke-linejoin:miter;marker:none;marker-start:none;marker-mid:none;marker-end:none;stroke-miterlimit:4;stroke-dasharray:2.99999995, 8.99999985;stroke-dashoffset:0;stroke-opacity:1;visibility:visible;display:inline;overflow:visible;enable-background:accumulate" />
    <path
       d="M 7.2394646,200.43651 L 154.20449,168.16016"
       id="path6161"
       style="color:#000000;fill:none;fill-opacity:1;fill-rule:evenodd;stroke:#000000;stroke-width:2;stroke-linecap:butt;stroke-linejoin:miter;marker:none;marker-start:none;marker-mid:none;marker-end:none;stroke-miterlimit:4;stroke-dashoffset:0;stroke-opacity:1;visibility:visible;display:inline;overflow:visible;enable-background:accumulate" />
    <path
       d="M 42.515101,229.31739 L 42.515101,197.04974 L 45.150908,197.04974 L 45.150908,229.31739 L 42.515101,229.31739 z M 48.240006,222.08151 L 57.691975,197.46946 L 61.200788,197.46946 L 71.273935,222.08151 L 67.563659,222.08151 L 64.692812,214.62738 L 54.401414,214.62738 L 51.698453,222.08151 L 48.240006,222.08151 z M 55.341575,211.97479 L 63.685498,211.97479 L 61.116845,205.15863 C 60.333366,203.08805 59.751363,201.38681 59.370833,200.0549 C 59.057436,201.63305 58.615337,203.19998 58.044536,204.7557 L 55.341575,211.97479 z M 74.413398,229.31739 L 74.413398,197.04974 L 77.049204,197.04974 L 77.049204,229.31739 L 74.413398,229.31739 z M 103.62552,215.55076 L 106.5971,215.93689 C 106.27251,217.9851 105.44147,219.58841 104.104,220.74682 C 102.7665,221.90523 101.12402,222.48444 99.176552,222.48444 C 96.736605,222.48444 94.775141,221.68698 93.292155,220.09207 C 91.809162,218.49715 91.067668,216.21111 91.067669,213.23393 C 91.067668,211.30885 91.38665,209.6244 92.024618,208.18057 C 92.662581,206.73677 93.633519,205.65391 94.937436,204.93198 C 96.241342,204.21009 97.659976,203.84914 99.19334,203.84912 C 101.12961,203.84914 102.71333,204.3388 103.94451,205.31812 C 105.17565,206.29747 105.96472,207.68812 106.3117,209.49008 L 103.3737,209.94337 C 103.09387,208.7458 102.59861,207.84481 101.88791,207.24041 C 101.17718,206.63604 100.31816,206.33384 99.310861,206.33383 C 97.788688,206.33384 96.551931,206.87947 95.600585,207.97071 C 94.649227,209.06198 94.173551,210.78841 94.173556,213.14999 C 94.173551,215.54517 94.632439,217.28558 95.550219,218.37124 C 96.467988,219.4569 97.665572,219.99973 99.142975,219.99973 C 100.32936,219.99973 101.31988,219.63598 102.11455,218.90847 C 102.9092,218.18097 103.41286,217.06173 103.62552,215.55076 L 103.62552,215.55076 z M 108.05771,213.16678 C 108.05771,209.86504 108.97548,207.4195 110.81103,205.83017 C 112.34439,204.50949 114.21351,203.84914 116.41842,203.84912 C 118.86954,203.84914 120.87297,204.65219 122.42873,206.25828 C 123.98445,207.8644 124.76232,210.08329 124.76234,212.91495 C 124.76232,215.20939 124.41816,217.01417 123.72984,218.32927 C 123.0415,219.64437 122.03978,220.66568 120.72469,221.39318 C 119.40957,222.12069 117.97415,222.48444 116.41842,222.48444 C 113.92251,222.48444 111.90508,221.68418 110.36614,220.08367 C 108.82718,218.48316 108.05771,216.17754 108.05771,213.16678 L 108.05771,213.16678 z M 111.16359,213.16678 C 111.16359,215.45003 111.66165,217.15967 112.65778,218.29569 C 113.65389,219.43172 114.90744,219.99973 116.41842,219.99973 C 117.91819,219.99973 119.16614,219.42892 120.16227,218.28729 C 121.15838,217.14568 121.65644,215.40526 121.65646,213.06605 C 121.65644,210.86116 121.15558,209.1907 120.15388,208.05466 C 119.15215,206.91864 117.907,206.35063 116.41842,206.35062 C 114.90744,206.35063 113.65389,206.91585 112.65778,208.04626 C 111.66165,209.17671 111.16359,210.88354 111.16359,213.16678 L 111.16359,213.16678 z M 127.11274,216.75953 L 130.10111,216.28945 C 130.26899,217.48704 130.73627,218.40482 131.50295,219.04278 C 132.26963,219.68075 133.3413,219.99973 134.71797,219.99973 C 136.10581,219.99973 137.13551,219.71712 137.80707,219.15191 C 138.4786,218.58669 138.81437,217.92355 138.81438,217.16246 C 138.81437,216.47973 138.51777,215.9425 137.92459,215.55076 C 137.51046,215.28215 136.48076,214.94078 134.83549,214.52665 C 132.61939,213.96704 131.08324,213.48297 130.22702,213.07444 C 129.3708,212.66593 128.72164,212.10071 128.27955,211.37879 C 127.83745,210.6569 127.6164,209.85944 127.6164,208.98642 C 127.6164,208.19178 127.79827,207.45588 128.16203,206.77872 C 128.52578,206.1016 129.02104,205.53918 129.64782,205.09147 C 130.11789,204.74453 130.75866,204.45073 131.57011,204.21007 C 132.38155,203.96945 133.25176,203.84914 134.18073,203.84912 C 135.57977,203.84914 136.80813,204.0506 137.86583,204.45351 C 138.92349,204.85645 139.70416,205.40208 140.20783,206.09039 C 140.71147,206.77874 141.05844,207.69931 141.24872,208.85211 L 138.29393,209.25504 C 138.15961,208.33728 137.77068,207.62097 137.12713,207.1061 C 136.48356,206.59127 135.57418,206.33384 134.39898,206.33383 C 133.01112,206.33384 132.0206,206.56329 131.42741,207.02216 C 130.83421,207.48106 130.53761,208.01829 130.53761,208.63386 C 130.53761,209.02561 130.66072,209.37817 130.90696,209.69154 C 131.15319,210.01613 131.53932,210.28475 132.06537,210.49739 C 132.36756,210.60933 133.25735,210.86675 134.73476,211.26967 C 136.87249,211.84049 138.36387,212.30777 139.20891,212.67151 C 140.05392,213.03528 140.71707,213.56412 141.19836,214.25804 C 141.67962,214.95197 141.92025,215.81378 141.92027,216.84348 C 141.92025,217.8508 141.62645,218.79935 141.03887,219.68914 C 140.45125,220.57894 139.60343,221.26727 138.4954,221.75414 C 137.38734,222.241 136.13379,222.48444 134.73476,222.48444 C 132.41793,222.48444 130.65233,222.00317 129.43796,221.04062 C 128.22358,220.07808 127.44851,218.65105 127.11274,216.75953 L 127.11274,216.75953 z M 145.42908,213.88869 C 145.42908,209.93779 146.38603,206.13798 148.29993,202.48924 C 150.21382,198.84055 152.72651,197.02738 155.838,197.04974 C 157.77427,196.99381 159.35799,197.65695 160.58917,199.03919 C 161.82031,200.42147 162.43589,202.52844 162.43591,205.36009 C 162.43589,209.56844 161.48174,213.47458 159.57346,217.07852 C 157.66514,220.68247 155.16085,222.48444 152.06057,222.48444 C 150.1019,222.48444 148.50698,221.72336 147.27583,220.20119 C 146.04466,218.67903 145.42908,216.57486 145.42908,213.88869 L 145.42908,213.88869 z M 149.25688,208.65065 L 159.12856,208.65065 C 159.41955,206.93823 159.56505,205.55597 159.56506,204.50387 C 159.56505,202.99292 159.21249,201.78694 158.50738,200.88593 C 157.80225,199.98497 156.86769,199.53448 155.70369,199.53445 C 152.82724,199.53448 150.6783,202.5732 149.25688,208.65065 L 149.25688,208.65065 z M 158.64169,211.16894 L 148.73643,211.16894 C 148.52377,212.67992 148.41744,213.84393 148.41745,214.66096 C 148.41744,216.27267 148.75881,217.56539 149.44155,218.53912 C 150.12428,219.51286 151.05884,219.99973 152.24524,219.99973 C 153.61071,219.99973 154.86145,219.21067 155.99749,217.63254 C 157.1335,216.05442 158.0149,213.89989 158.64169,211.16894 L 158.64169,211.16894 z"
       id="text9601"
       style="font-size:34.38300705px;font-style:normal;font-variant:normal;font-weight:normal;font-stretch:normal;text-indent:0;text-align:start;text-decoration:none;line-height:125%;letter-spacing:normal;word-spacing:normal;text-transform:none;direction:ltr;block-progression:tb;writing-mode:lr-tb;text-anchor:start;color:#000000;fill:#000000;fill-opacity:1;fill-rule:evenodd;stroke:none;stroke-width:3;stroke-linecap:round;stroke-linejoin:round;marker:none;marker-start:none;marker-mid:none;marker-end:none;stroke-miterlimit:4;stroke-dashoffset:0;stroke-opacity:1;visibility:visible;display:inline;overflow:visible;enable-background:accumulate;font-family:'Times New Roman'"
       transform="scale(1.0044848,0.9955352)" />
    <path
       d="M 46.593946,150.20659 C 46.593944,146.25569 47.550892,142.45588 49.464793,138.80714 C 51.378684,135.15845 53.891372,133.34528 57.002865,133.36764 C 58.939133,133.31171 60.522854,133.97485 61.754033,135.35709 C 62.985177,136.73937 63.600758,138.84633 63.600777,141.67799 C 63.600758,145.88634 62.646608,149.79248 60.738324,153.39642 C 58.830008,157.00037 56.325714,158.80234 53.225435,158.80234 C 51.26676,158.80234 49.671847,158.04126 48.440689,156.51909 C 47.209524,154.99693 46.593944,152.89277 46.593946,150.20659 L 46.593946,150.20659 z M 50.421742,144.96855 L 60.293427,144.96855 C 60.584412,143.25613 60.729913,141.87387 60.72993,140.82177 C 60.729913,139.31082 60.377354,138.10484 59.672249,137.20383 C 58.967114,136.30287 58.032551,135.85237 56.868556,135.85235 C 53.992103,135.85237 51.843167,138.8911 50.421742,144.96855 L 50.421742,144.96855 z M 59.806558,147.48684 L 49.901296,147.48684 C 49.688635,148.99782 49.582308,150.16183 49.582313,150.97886 C 49.582308,152.59057 49.923675,153.88329 50.606416,154.85702 C 51.289145,155.83076 52.223708,156.31763 53.410109,156.31763 C 54.77557,156.31763 56.026318,155.52857 57.162357,153.95044 C 58.29837,152.37232 59.179769,150.21779 59.806558,147.48684 L 59.806558,147.48684 z"
       transform="scale(1.0044848,0.9955352)"
       id="text2213"
       style="font-size:34.38301086px;font-style:normal;font-variant:normal;font-weight:normal;font-stretch:normal;text-indent:0;text-align:start;text-decoration:none;line-height:125%;letter-spacing:normal;word-spacing:normal;text-transform:none;direction:ltr;block-progression:tb;writing-mode:lr-tb;text-anchor:start;color:#000000;fill-opacity:1;fill-rule:evenodd;stroke:none;stroke-width:3;stroke-linecap:round;stroke-linejoin:round;marker:none;marker-start:none;marker-mid:none;marker-end:none;stroke-miterlimit:4;stroke-dashoffset:0;stroke-opacity:1;visibility:visible;display:inline;overflow:visible;enable-background:accumulate;font-family:Arial" />
    <path
       d="M 8.2090365,204.8513 L 6.2698927,196.02172"
       id="path2249"
       style="fill:none;fill-opacity:0.75;fill-rule:evenodd;stroke:#000000;stroke-width:2" />
    <path
       d="M 155.17406,172.57495 L 153.23492,163.74537"
       id="path2251"
       style="fill:none;fill-opacity:0.75;fill-rule:evenodd;stroke:#000000;stroke-width:2" />
  </g>
  <path
     style="fill:none;stroke:#000000;stroke-width:0.69196922px;stroke-linecap:butt;stroke-linejoin:miter;stroke-opacity:1"
     d="m 145.2703,126.77131 -28.56385,6.19554 6.276,26.95461"
     id="path3022"
     inkscape:connector-curvature="0" />
</svg>
