<?xml version="1.0" encoding="UTF-8"?> <svg xmlns="http://www.w3.org/2000/svg" width="264" height="173" viewBox="0 0 264 173" fill="none"><path d="M239.5 148.5L239.5 2.70042L5.2487 148.5H239.5Z" fill="#FF4081" fill-opacity="0.3" stroke="#FF4081" stroke-width="3"></path><rect x="220" y="129" width="20" height="20" stroke="#FF4081" stroke-width="2"></rect><path d="M46.8498 149C47.2787 144.89 46.7855 140.726 45.4147 136.884C44.0439 133.042 41.839 129.645 39 127" stroke="#FF4081" stroke-width="2"></path><path d="M75.7003 91.5294L69.3553 80.5396L71.3506 79.3876L73.9966 83.9706L79.6552 80.7036L77.0092 76.1206L79.0046 74.9686L85.3496 85.9584L83.3542 87.1104L80.6182 82.3715L74.9596 85.6385L77.6956 90.3774L75.7003 91.5294ZM90.0057 87.0114L89.6087 83.0837L82.2232 77.5997L84.2965 76.4027L89.5101 80.501L88.6145 73.9097L90.5787 72.7757L92.0167 85.8504L90.0057 87.0114ZM97.655 82.5951L91.634 72.1664L93.5358 71.0684L94.2378 72.2843C94.216 71.7426 94.3514 71.2211 94.6439 70.7197C94.9467 70.2123 95.3788 69.7965 95.94 69.4725C96.6051 69.0885 97.28 68.9136 97.9649 68.9478C98.6601 68.976 99.319 69.2052 99.9416 69.6356C100.558 70.0555 101.103 70.676 101.577 71.497C102.045 72.3076 102.313 73.0953 102.381 73.86C102.442 74.6144 102.316 75.2967 102.003 75.9068C101.691 76.517 101.196 77.0171 100.521 77.4071C99.9806 77.7191 99.4261 77.8868 98.8576 77.9101C98.2936 77.9171 97.7832 77.7891 97.3266 77.5262L99.6036 81.4701L97.655 82.5951ZM99.1204 76.2412C99.7023 75.9052 100.05 75.4273 100.163 74.8076C100.271 74.1775 100.087 73.452 99.6133 72.631C99.1333 71.7996 98.5997 71.2833 98.0123 71.082C97.419 70.8703 96.8313 70.9325 96.2494 71.2685C95.6674 71.6045 95.3197 72.0823 95.2064 72.702C95.0871 73.3113 95.2674 74.0316 95.7474 74.863C96.2214 75.684 96.7581 76.2055 97.3574 76.4276C97.9507 76.6393 98.5384 76.5772 99.1204 76.2412ZM109.078 72.4666C108.288 72.9226 107.509 73.1575 106.741 73.1713C105.973 73.1852 105.257 72.9889 104.593 72.5826C103.923 72.1658 103.354 71.5521 102.886 70.7415C102.418 69.9309 102.174 69.1365 102.154 68.3581C102.134 67.5797 102.322 66.8615 102.718 66.2033C103.114 65.5451 103.707 64.9881 104.497 64.5321C105.287 64.0761 106.066 63.8411 106.834 63.8273C107.602 63.8135 108.318 64.0097 108.982 64.4161C109.646 64.8225 110.212 65.4309 110.68 66.2415C111.148 67.0521 111.395 67.8518 111.421 68.6406C111.441 69.4189 111.253 70.1372 110.857 70.7953C110.461 71.4535 109.868 72.0106 109.078 72.4666ZM108.223 70.9857C108.805 70.6497 109.153 70.1718 109.266 69.5521C109.373 68.9221 109.19 68.1965 108.716 67.3755C108.236 66.5441 107.702 66.0278 107.115 65.8265C106.522 65.6148 105.934 65.677 105.352 66.013C104.77 66.349 104.422 66.8268 104.309 67.4465C104.19 68.0558 104.37 68.7761 104.85 69.6075C105.324 70.4285 105.861 70.9501 106.46 71.1721C107.053 71.3838 107.641 71.3217 108.223 70.9857ZM118.129 67.241C116.113 68.405 114.529 67.9893 113.377 65.994L111.46 62.6737L109.995 63.5197L109.149 62.0543L110.614 61.2083L109.3 58.9324L111.249 57.8074L112.563 60.0833L114.87 58.7513L115.716 60.2167L113.409 61.5487L115.263 64.7599C115.551 65.2587 115.876 65.5698 116.238 65.6933C116.6 65.8167 117.025 65.7374 117.514 65.4554C117.659 65.3714 117.801 65.2688 117.939 65.1476C118.071 65.016 118.208 64.8815 118.35 64.7439L119.474 66.007C119.347 66.219 119.156 66.4401 118.901 66.6705C118.657 66.8948 118.399 67.085 118.129 67.241ZM120.66 65.572L114.315 54.5821L116.263 53.4571L118.846 57.931C118.866 57.3653 119.034 56.8526 119.351 56.3927C119.661 55.9225 120.082 55.5344 120.612 55.2284C122.409 54.1904 123.911 54.7158 125.117 56.8046L127.799 61.45L125.851 62.575L123.223 58.0232C122.881 57.4308 122.518 57.0655 122.133 56.9273C121.759 56.7831 121.338 56.846 120.87 57.116C120.298 57.446 119.946 57.8919 119.813 58.4536C119.685 58.999 119.791 59.5678 120.133 60.1602L122.608 64.447L120.66 65.572ZM133.755 58.2192C132.893 58.7172 132.057 58.9852 131.247 59.023C130.438 59.0608 129.69 58.8826 129.005 58.4882C128.331 58.0878 127.76 57.4824 127.292 56.6718C126.836 55.882 126.598 55.0979 126.578 54.3195C126.568 53.5351 126.753 52.8117 127.133 52.1491C127.517 51.4702 128.078 50.9177 128.816 50.4917C129.897 49.8677 130.947 49.7187 131.966 50.0446C132.996 50.3644 133.853 51.1167 134.537 52.3015L134.87 52.8782L129.414 56.0282C130.346 57.3056 131.518 57.5363 132.931 56.7203C133.358 56.4743 133.748 56.166 134.102 55.7953C134.45 55.4142 134.719 54.9813 134.911 54.4967L136.212 55.4912C136.023 56.0025 135.703 56.5056 135.255 57.0002C134.806 57.4949 134.306 57.9012 133.755 58.2192ZM129.659 51.7717C129.087 52.1017 128.727 52.5454 128.577 53.1027C128.428 53.6601 128.491 54.2611 128.766 54.9059L132.601 52.6919C132.193 52.0819 131.738 51.7007 131.234 51.5482C130.735 51.3792 130.209 51.4537 129.659 51.7717ZM138.487 55.2794L134.086 47.6567L135.988 46.5587L136.672 47.7434C136.68 47.1569 136.836 46.6234 137.14 46.1427C137.455 45.6561 137.888 45.2538 138.439 44.9358C140.237 43.8978 141.739 44.4232 142.945 46.5121L145.627 51.1574L143.678 52.2824L141.05 47.7306C140.708 47.1382 140.345 46.773 139.96 46.6348C139.586 46.4906 139.165 46.5535 138.697 46.8235C138.126 47.1535 137.774 47.5993 137.641 48.161C137.512 48.7064 137.619 49.2752 137.961 49.8676L140.436 54.1544L138.487 55.2794ZM150.585 48.5027C148.714 49.5827 147.173 49.073 145.961 46.9738L143.288 42.344L145.236 41.219L147.927 45.88C148.239 46.4204 148.58 46.7575 148.948 46.8913C149.316 47.0251 149.739 46.954 150.217 46.678C150.737 46.378 151.061 45.9553 151.19 45.41C151.312 44.8543 151.202 44.2802 150.86 43.6878L148.385 39.401L150.334 38.276L154.735 45.8988L152.833 46.9968L152.176 45.8588C152.165 47.0154 151.634 47.8967 150.585 48.5027ZM159.773 43.1977C159.129 43.5697 158.481 43.8398 157.83 44.0079C157.179 44.176 156.582 44.2226 156.04 44.1476L155.801 42.5814C156.335 42.6192 156.884 42.5728 157.446 42.4423C158.002 42.3014 158.519 42.093 158.997 41.817C159.496 41.529 159.817 41.2328 159.96 40.9285C160.107 40.6079 160.1 40.3072 159.938 40.0267C159.686 39.5902 159.202 39.4956 158.485 39.7429L156.755 40.3467C155.292 40.8593 154.236 40.5544 153.588 39.432C153.3 38.9332 153.186 38.4239 153.246 37.9042C153.317 37.3784 153.539 36.8759 153.914 36.3964C154.288 35.9169 154.792 35.4942 155.426 35.1282C155.966 34.8162 156.531 34.5942 157.12 34.462C157.703 34.3195 158.258 34.297 158.785 34.3944L158.993 35.9786C158.548 35.9032 158.07 35.9157 157.56 36.0162C157.06 36.1108 156.618 36.269 156.234 36.491C155.724 36.785 155.396 37.0923 155.249 37.413C155.112 37.7277 155.127 38.0305 155.295 38.3215C155.559 38.7788 156.017 38.8883 156.67 38.6503L158.4 38.0464C159.147 37.7812 159.788 37.7158 160.323 37.8503C160.869 37.9789 161.303 38.3238 161.627 38.8849C162.065 39.6436 162.114 40.4121 161.774 41.1906C161.427 41.9587 160.761 42.6277 159.773 43.1977ZM168.481 38.1702C167.619 38.6682 166.783 38.9361 165.973 38.974C165.163 39.0118 164.416 38.8335 163.731 38.4392C163.057 38.0388 162.485 37.4333 162.017 36.6227C161.561 35.8329 161.324 35.0488 161.304 34.2705C161.294 33.4861 161.479 32.7627 161.859 32.1001C162.243 31.4212 162.804 30.8687 163.542 30.4427C164.622 29.8187 165.673 29.6696 166.692 29.9955C167.722 30.3154 168.579 31.0677 169.263 32.2524L169.596 32.8292L164.14 35.9792C165.072 37.2566 166.244 37.4873 167.657 36.6713C168.083 36.4253 168.474 36.117 168.828 35.7462C169.176 35.3651 169.445 34.9323 169.637 34.4477L170.938 35.4421C170.749 35.9535 170.429 36.4565 169.981 36.9512C169.532 37.4459 169.032 37.8522 168.481 38.1702ZM164.385 31.7227C163.813 32.0527 163.453 32.4964 163.303 33.0537C163.154 33.6111 163.217 34.2121 163.492 34.8569L167.327 32.6429C166.919 32.0329 166.464 31.6517 165.96 31.4991C165.46 31.3302 164.935 31.4047 164.385 31.7227Z" fill="black"></path><path d="M246.82 43.074C246.82 41.85 247.09 40.776 247.63 39.852C248.17 38.94 248.926 38.232 249.898 37.728C250.882 37.224 252.034 36.972 253.354 36.972C254.686 36.972 255.838 37.224 256.81 37.728C257.782 38.232 258.532 38.94 259.06 39.852C259.6 40.764 259.87 41.838 259.87 43.074C259.87 44.31 259.6 45.384 259.06 46.296C258.532 47.208 257.782 47.916 256.81 48.42C255.838 48.924 254.692 49.176 253.372 49.176C252.04 49.176 250.882 48.924 249.898 48.42C248.926 47.916 248.17 47.208 247.63 46.296C247.09 45.384 246.82 44.31 246.82 43.074ZM248.8 43.074C248.8 44.238 249.202 45.144 250.006 45.792C250.81 46.44 251.926 46.764 253.354 46.764C254.794 46.764 255.91 46.44 256.702 45.792C257.494 45.156 257.89 44.25 257.89 43.074C257.89 41.91 257.494 41.004 256.702 40.356C255.91 39.708 254.794 39.384 253.354 39.384C251.926 39.384 250.81 39.708 250.006 40.356C249.202 41.004 248.8 41.91 248.8 43.074ZM243.76 51.4528H255.802V53.6488H254.398C254.878 53.9008 255.262 54.2788 255.55 54.7828C255.838 55.2988 255.982 55.8808 255.982 56.5288C255.982 57.2968 255.796 57.9688 255.424 58.5448C255.052 59.1328 254.524 59.5888 253.84 59.9128C253.168 60.2368 252.358 60.3988 251.41 60.3988C250.474 60.3988 249.658 60.2368 248.962 59.9128C248.278 59.5888 247.75 59.1388 247.378 58.5628C247.006 57.9868 246.82 57.3088 246.82 56.5288C246.82 55.9048 246.952 55.3408 247.216 54.8368C247.492 54.3448 247.858 53.9668 248.314 53.7028H243.76V51.4528ZM248.53 55.8988C248.53 56.5708 248.77 57.1108 249.25 57.5188C249.742 57.9268 250.462 58.1308 251.41 58.1308C252.37 58.1308 253.084 57.9268 253.552 57.5188C254.032 57.1108 254.272 56.5708 254.272 55.8988C254.272 55.2268 254.032 54.6868 253.552 54.2788C253.084 53.8708 252.37 53.6668 251.41 53.6668C250.462 53.6668 249.742 53.8708 249.25 54.2788C248.77 54.6868 248.53 55.2268 248.53 55.8988ZM243.76 62.3958H255.802V64.5918H254.398C254.878 64.8438 255.262 65.2218 255.55 65.7258C255.838 66.2418 255.982 66.8238 255.982 67.4718C255.982 68.2398 255.796 68.9118 255.424 69.4878C255.052 70.0758 254.524 70.5318 253.84 70.8558C253.168 71.1798 252.358 71.3418 251.41 71.3418C250.474 71.3418 249.658 71.1798 248.962 70.8558C248.278 70.5318 247.75 70.0818 247.378 69.5058C247.006 68.9298 246.82 68.2518 246.82 67.4718C246.82 66.8478 246.952 66.2838 247.216 65.7798C247.492 65.2878 247.858 64.9098 248.314 64.6458H243.76V62.3958ZM248.53 66.8418C248.53 67.5138 248.77 68.0538 249.25 68.4618C249.742 68.8698 250.462 69.0738 251.41 69.0738C252.37 69.0738 253.084 68.8698 253.552 68.4618C254.032 68.0538 254.272 67.5138 254.272 66.8418C254.272 66.1698 254.032 65.6298 253.552 65.2218C253.084 64.8138 252.37 64.6098 251.41 64.6098C250.462 64.6098 249.742 64.8138 249.25 65.2218C248.77 65.6298 248.53 66.1698 248.53 66.8418ZM246.82 77.3528C246.82 76.4408 247.006 75.6488 247.378 74.9768C247.75 74.3048 248.278 73.7828 248.962 73.4108C249.658 73.0388 250.474 72.8528 251.41 72.8528C252.346 72.8528 253.156 73.0388 253.84 73.4108C254.524 73.7828 255.052 74.3048 255.424 74.9768C255.796 75.6488 255.982 76.4408 255.982 77.3528C255.982 78.2648 255.796 79.0568 255.424 79.7288C255.052 80.4008 254.524 80.9228 253.84 81.2948C253.156 81.6668 252.346 81.8528 251.41 81.8528C250.474 81.8528 249.658 81.6668 248.962 81.2948C248.278 80.9228 247.75 80.4008 247.378 79.7288C247.006 79.0568 246.82 78.2648 246.82 77.3528ZM248.53 77.3528C248.53 78.0248 248.77 78.5648 249.25 78.9728C249.742 79.3808 250.462 79.5848 251.41 79.5848C252.37 79.5848 253.084 79.3808 253.552 78.9728C254.032 78.5648 254.272 78.0248 254.272 77.3528C254.272 76.6808 254.032 76.1408 253.552 75.7328C253.084 75.3248 252.37 75.1208 251.41 75.1208C250.462 75.1208 249.742 75.3248 249.25 75.7328C248.77 76.1408 248.53 76.6808 248.53 77.3528ZM246.82 87.0818C246.82 86.3378 246.91 85.6418 247.09 84.9938C247.27 84.3458 247.528 83.8058 247.864 83.3738L249.34 83.9498C249.04 84.3938 248.806 84.8918 248.638 85.4438C248.482 85.9958 248.404 86.5478 248.404 87.0998C248.404 87.6758 248.5 88.1018 248.692 88.3778C248.896 88.6658 249.16 88.8098 249.484 88.8098C249.988 88.8098 250.312 88.4378 250.456 87.6938L250.798 85.8938C251.086 84.3698 251.878 83.6078 253.174 83.6078C253.75 83.6078 254.248 83.7638 254.668 84.0758C255.088 84.3998 255.412 84.8438 255.64 85.4078C255.868 85.9718 255.982 86.6198 255.982 87.3518C255.982 87.9758 255.892 88.5758 255.712 89.1518C255.544 89.7278 255.286 90.2198 254.938 90.6278L253.462 90.0158C253.75 89.6678 253.978 89.2478 254.146 88.7558C254.314 88.2758 254.398 87.8138 254.398 87.3698C254.398 86.7818 254.296 86.3438 254.092 86.0558C253.888 85.7798 253.618 85.6418 253.282 85.6418C252.754 85.6418 252.43 85.9838 252.31 86.6678L251.968 88.4678C251.824 89.2478 251.56 89.8358 251.176 90.2318C250.792 90.6398 250.276 90.8438 249.628 90.8438C248.752 90.8438 248.062 90.5018 247.558 89.8178C247.066 89.1338 246.82 88.2218 246.82 87.0818ZM257.692 92.6549H259.888V95.1749H257.692V92.6549ZM247 92.7989H255.802V95.0489H247V92.7989ZM246.82 101.569C246.82 99.2408 247.972 98.0768 250.276 98.0768H254.11V96.3848H255.802V98.0768H258.43V100.327H255.802V102.991H254.11V100.327H250.402C249.826 100.327 249.394 100.453 249.106 100.705C248.818 100.957 248.674 101.365 248.674 101.929C248.674 102.097 248.692 102.271 248.728 102.451C248.776 102.631 248.824 102.817 248.872 103.009L247.216 103.351C247.096 103.135 247 102.859 246.928 102.523C246.856 102.199 246.82 101.881 246.82 101.569ZM246.82 108.845C246.82 107.849 247.006 106.991 247.378 106.271C247.75 105.551 248.278 104.993 248.962 104.597C249.646 104.213 250.456 104.021 251.392 104.021C252.304 104.021 253.102 104.207 253.786 104.579C254.47 104.963 255.004 105.485 255.388 106.145C255.784 106.817 255.982 107.579 255.982 108.431C255.982 109.679 255.586 110.663 254.794 111.383C254.002 112.115 252.922 112.481 251.554 112.481H250.888V106.181C249.316 106.349 248.53 107.249 248.53 108.881C248.53 109.373 248.602 109.865 248.746 110.357C248.902 110.849 249.142 111.299 249.466 111.707L247.954 112.337C247.606 111.917 247.33 111.389 247.126 110.753C246.922 110.117 246.82 109.481 246.82 108.845ZM254.452 108.521C254.452 107.861 254.248 107.327 253.84 106.919C253.432 106.511 252.88 106.265 252.184 106.181V110.609C252.916 110.561 253.474 110.357 253.858 109.997C254.254 109.649 254.452 109.157 254.452 108.521Z" fill="black"></path><path d="M99.018 167L104.76 154.31H106.65L112.392 167H110.052L108.792 164.066H102.6L101.358 167H99.018ZM105.678 156.812L103.392 162.23H108L105.714 156.812H105.678ZM117.011 167.18C116.243 167.18 115.565 166.994 114.977 166.622C114.401 166.25 113.951 165.722 113.627 165.038C113.303 164.342 113.141 163.526 113.141 162.59C113.141 161.642 113.303 160.832 113.627 160.16C113.951 159.476 114.401 158.948 114.977 158.576C115.565 158.204 116.243 158.018 117.011 158.018C117.635 158.018 118.199 158.156 118.703 158.432C119.207 158.708 119.585 159.074 119.837 159.53V154.31H122.087V167H119.891V165.542C119.651 166.046 119.273 166.448 118.757 166.748C118.241 167.036 117.659 167.18 117.011 167.18ZM117.641 165.47C118.313 165.47 118.853 165.23 119.261 164.75C119.669 164.258 119.873 163.538 119.873 162.59C119.873 161.63 119.669 160.916 119.261 160.448C118.853 159.968 118.313 159.728 117.641 159.728C116.969 159.728 116.429 159.968 116.021 160.448C115.613 160.916 115.409 161.63 115.409 162.59C115.409 163.538 115.613 164.258 116.021 164.75C116.429 165.23 116.969 165.47 117.641 165.47ZM124.498 156.308V154.112H127.018V156.308H124.498ZM122.59 170.474L122.428 168.836L123.256 168.746C124.18 168.638 124.642 168.098 124.642 167.126V158.198H126.892V166.838C126.892 168.014 126.622 168.878 126.082 169.43C125.542 169.994 124.636 170.324 123.364 170.42L122.59 170.474ZM132.276 167.18C131.64 167.18 131.07 167.06 130.566 166.82C130.074 166.568 129.684 166.232 129.396 165.812C129.12 165.392 128.982 164.918 128.982 164.39C128.982 163.742 129.15 163.232 129.486 162.86C129.822 162.476 130.368 162.2 131.124 162.032C131.88 161.864 132.894 161.78 134.166 161.78H134.796V161.402C134.796 160.802 134.664 160.37 134.4 160.106C134.136 159.842 133.692 159.71 133.068 159.71C132.576 159.71 132.072 159.788 131.556 159.944C131.04 160.088 130.518 160.316 129.99 160.628L129.342 159.098C129.654 158.882 130.02 158.696 130.44 158.54C130.872 158.372 131.322 158.246 131.79 158.162C132.27 158.066 132.72 158.018 133.14 158.018C134.424 158.018 135.378 158.318 136.002 158.918C136.626 159.506 136.938 160.424 136.938 161.672V167H134.832V165.596C134.628 166.088 134.304 166.478 133.86 166.766C133.416 167.042 132.888 167.18 132.276 167.18ZM132.744 165.632C133.332 165.632 133.818 165.428 134.202 165.02C134.598 164.612 134.796 164.096 134.796 163.472V163.076H134.184C133.056 163.076 132.27 163.166 131.826 163.346C131.394 163.514 131.178 163.826 131.178 164.282C131.178 164.678 131.316 165.002 131.592 165.254C131.868 165.506 132.252 165.632 132.744 165.632ZM143.44 167.18C142.516 167.18 141.712 166.994 141.028 166.622C140.344 166.238 139.816 165.698 139.444 165.002C139.072 164.306 138.886 163.49 138.886 162.554C138.886 161.618 139.072 160.814 139.444 160.142C139.816 159.458 140.344 158.936 141.028 158.576C141.712 158.204 142.516 158.018 143.44 158.018C144.004 158.018 144.562 158.108 145.114 158.288C145.666 158.468 146.122 158.72 146.482 159.044L145.816 160.61C145.504 160.334 145.15 160.124 144.754 159.98C144.37 159.836 143.998 159.764 143.638 159.764C142.858 159.764 142.252 160.01 141.82 160.502C141.4 160.982 141.19 161.672 141.19 162.572C141.19 163.46 141.4 164.162 141.82 164.678C142.252 165.182 142.858 165.434 143.638 165.434C143.986 165.434 144.358 165.362 144.754 165.218C145.15 165.074 145.504 164.858 145.816 164.57L146.482 166.154C146.122 166.466 145.66 166.718 145.096 166.91C144.544 167.09 143.992 167.18 143.44 167.18ZM152.174 167.18C151.178 167.18 150.32 166.994 149.6 166.622C148.88 166.25 148.322 165.722 147.926 165.038C147.542 164.354 147.35 163.544 147.35 162.608C147.35 161.696 147.536 160.898 147.908 160.214C148.292 159.53 148.814 158.996 149.474 158.612C150.146 158.216 150.908 158.018 151.76 158.018C153.008 158.018 153.992 158.414 154.712 159.206C155.444 159.998 155.81 161.078 155.81 162.446V163.112H149.51C149.678 164.684 150.578 165.47 152.21 165.47C152.702 165.47 153.194 165.398 153.686 165.254C154.178 165.098 154.628 164.858 155.036 164.534L155.666 166.046C155.246 166.394 154.718 166.67 154.082 166.874C153.446 167.078 152.81 167.18 152.174 167.18ZM151.85 159.548C151.19 159.548 150.656 159.752 150.248 160.16C149.84 160.568 149.594 161.12 149.51 161.816H153.938C153.89 161.084 153.686 160.526 153.326 160.142C152.978 159.746 152.486 159.548 151.85 159.548ZM157.742 167V158.198H159.938V159.566C160.238 159.062 160.64 158.678 161.144 158.414C161.66 158.15 162.236 158.018 162.872 158.018C164.948 158.018 165.986 159.224 165.986 161.636V167H163.736V161.744C163.736 161.06 163.604 160.562 163.34 160.25C163.088 159.938 162.692 159.782 162.152 159.782C161.492 159.782 160.964 159.992 160.568 160.412C160.184 160.82 159.992 161.366 159.992 162.05V167H157.742ZM172.453 167.18C170.125 167.18 168.961 166.028 168.961 163.724V159.89H167.269V158.198H168.961V155.57H171.211V158.198H173.875V159.89H171.211V163.598C171.211 164.174 171.337 164.606 171.589 164.894C171.841 165.182 172.249 165.326 172.813 165.326C172.981 165.326 173.155 165.308 173.335 165.272C173.515 165.224 173.701 165.176 173.893 165.128L174.235 166.784C174.019 166.904 173.743 167 173.407 167.072C173.083 167.144 172.765 167.18 172.453 167.18Z" fill="black"></path><path d="M52.5225 136.062C52.5225 135.111 52.7165 134.109 53.1046 133.056C53.4926 132.002 54.02 131.094 54.6866 130.329C55.3533 129.565 56.0448 129.127 56.7613 129.015C56.7712 129.015 56.811 129.015 56.8807 129.015C56.9503 129.015 57.01 129.01 57.0598 129.001C57.5971 129.038 58.015 129.267 58.3135 129.686C58.7016 130.245 58.8956 130.996 58.8956 131.937C58.8956 133.009 58.6717 134.1 58.224 135.209C57.7762 136.318 57.2041 137.227 56.5075 137.935C55.811 138.644 55.1444 138.998 54.5075 138.998H54.4031C54.0448 138.998 53.7364 138.905 53.4777 138.718C53.219 138.532 53.0249 138.285 52.8956 137.977C52.7662 137.67 52.6717 137.358 52.612 137.041C52.5523 136.724 52.5225 136.397 52.5225 136.062ZM57.7165 130.945C57.7165 129.994 57.4528 129.518 56.9254 129.518C56.5672 129.518 56.219 129.728 55.8807 130.148C55.5424 130.567 55.2638 131.042 55.0448 131.574C54.8259 132.105 54.6568 132.571 54.5374 132.972C54.418 133.373 54.3533 133.606 54.3434 133.671C54.8309 133.68 55.3135 133.685 55.7911 133.685L57.2389 133.671C57.2488 133.662 57.2886 133.508 57.3583 133.21C57.4279 132.911 57.5075 132.538 57.5971 132.091C57.6866 131.644 57.7264 131.261 57.7165 130.945ZM53.6866 137.013C53.6866 138.001 53.9503 138.495 54.4777 138.495C54.6269 138.495 54.7861 138.448 54.9553 138.355C55.1245 138.262 55.3284 138.085 55.5672 137.824C55.806 137.563 56.0448 137.157 56.2837 136.607C56.5225 136.057 56.7613 135.377 57.0001 134.566L57.0747 134.328H54.1643C54.1643 134.356 54.1195 134.533 54.0299 134.859C53.9404 135.186 53.8608 135.549 53.7911 135.95C53.7215 136.351 53.6866 136.705 53.6866 137.013Z" fill="black"></path></svg> 